<?xml version="1.0" encoding="utf-8"?>
<!-- Generator: Adobe Illustrator 19.0.0, SVG Export Plug-In . SVG Version: 6.00 Build 0)  -->
<svg version="1.1" id="Layer_1" xmlns="http://www.w3.org/2000/svg" xmlns:xlink="http://www.w3.org/1999/xlink" x="0px" y="0px"
	 viewBox="0 0 300 300" style="enable-background:new 0 0 300 300;" xml:space="preserve">
<style type="text/css">
	.st0{fill:none;stroke:#000000;stroke-width:1.9341;stroke-miterlimit:10;}
</style>
<g id="XMLID_555_">
	<path id="XMLID_588_" class="st0" d="M45.6,164c-0.8-12.8,5.8-30,8.3-31.5c1.4-0.8-0.2,1.8,1.4,3.8c1.6,2,3.5,1.6,3.8,3.6
		C59.4,142,53.3,144.5,45.6,164z M58.5,130.3c2.5-1.3,19.8,0.1,22,0.5c2.2,0.3,3.5,0.8,4.2,1.6c0.7,0.8,0.8,2.1-0.5,2.8
		c-2.4,1.2-17.4,3.5-21.7,2.6C58,136.8,55.9,131.6,58.5,130.3z M59.8,172.7c-2.9-9.9,4.1-26.9,6.1-27.3c1.6-0.3,0.7,1.3,2.3,2.6
		c1.6,1.3,3.4,0.7,3.5,2.1C71.7,151.8,62.4,156,59.8,172.7z M69.7,143.2c1.7-1.7,16.5-5.1,18.2-5.4c1.7-0.3,2.7-0.5,3.5,0.4
		c0.8,0.9,0.2,1.7-0.4,2.3c-0.9,0.9-13,7.7-16,7.7C71.5,148.4,68,145,69.7,143.2z M104.4,162.6c-1.9-1.5-6-3.6-12.1-1.4
		c-6.9,2.5,7.2-10.9,13.8-11.5c1.4-0.1,6.4,3.3,6.2,4.9C112.1,156.2,106.8,164.5,104.4,162.6z M103.7,176.5
		c-7.3-2.3-17.8,2.5-20.2,4.6c-3,2.7,2.6-14.4,9.1-17c4.9-1.9,9,0.3,10.5,2.2C105.1,168.9,108.3,178,103.7,176.5z M98,144.8
		c-0.7,0.9-9,8.8-11.5,9.5c-2.9,0.8-6.6-1.4-5.5-3.2c1.1-1.8,13-7.7,14-8.2c1.1-0.5,2.8-0.9,3.3-0.4C98.7,143.1,98.7,143.9,98,144.8
		z M78.9,154c1.1-0.3,0.5,0.8,1.9,1.7c1.4,0.9,2.7-0.1,2.9,1.1c0.4,1.8-6.8,5.8-7.3,19.5C73.1,168.7,77.2,154.5,78.9,154z
		 M133.9,219c-3,2.4-19.3,13.7-45.9-2.5c-9.6-5.8-12.6-18.4-6.8-28c5.8-9.6,18.4-12.6,28-6.8c4.6,2.8,7.6,7.1,9,11.9
		c5,5,14.7,9.7,15.6,21.4c0,0.2-0.3,0.3-0.4,0.1c-7.8-8.9-14.6-8.9-17-5.9c-1.1,2.2-1.9,5.1,1.8,7.8c2.4,1.8,7.7,2.2,15.7,1.5
		C134,218.6,134.3,218.8,133.9,219z M148.5,151.1C148.5,151.1,148.5,151.1,148.5,151.1c-16.8,0-32.4-1.3-53.7-16.6
		c-31.4-22.6-43.9-17.8-43.9-22c0-4.7,32.1,3.8,56.6-18.7c4.9-4.5,9.6-8,14.1-10.5c-2.8-5.2,2-10.1,2-10.1c0.5,4.1,2.5,6,4.3,6.9
		c7.7-3.3,14.6-4.2,20.5-4.2c0,0,0,0,0.1,0c0,0,0,0,0.1,0c5.9,0,12.8,1,20.5,4.2c1.8-1,3.8-2.9,4.3-6.9c0,0,4.8,4.9,2,10.1
		c0,0,0,0,0,0c4.5,2.6,9.2,6,14.1,10.5c24.4,22.5,56.5,14,56.5,18.7c0,4.2-12.5-0.6-43.9,22C180.9,149.8,165.3,151.1,148.5,151.1
		C148.5,151.1,148.5,151.1,148.5,151.1z M234.5,137.8c-4.3,0.9-19.3-1.5-21.7-2.6c-1.3-0.6-1.2-2-0.5-2.8c0.7-0.8,2-1.3,4.2-1.6
		c2.2-0.3,19.4-1.8,22-0.5C241.1,131.6,239,136.8,234.5,137.8z M193.9,166.5c1.5-1.9,5.6-4.1,10.5-2.2c6.5,2.5,12.1,19.7,9.1,17
		c-2.4-2.2-12.9-7-20.2-4.6C188.7,178,191.9,168.9,193.9,166.5z M184.7,154.6c-0.2-1.5,4.8-4.9,6.2-4.9c6.6,0.6,20.7,14,13.8,11.5
		c-6.1-2.2-10.2-0.1-12.1,1.4C190.2,164.5,184.9,156.2,184.7,154.6z M210.6,154.3c-2.5-0.6-10.9-8.6-11.5-9.5
		c-0.7-0.9-0.8-1.8-0.3-2.3c0.5-0.5,2.1-0.2,3.3,0.4c1,0.5,13,6.3,14.1,8.2C217.1,152.9,213.5,155.1,210.6,154.3z M209,216.6
		c-26.6,16.1-42.8,4.9-45.9,2.5c-0.3-0.3-0.1-0.4,0.1-0.4c8,0.7,13.4,0.3,15.7-1.5c3.7-2.8,2.9-5.6,1.8-7.8c-2.4-3-9.2-2.9-17,5.9
		c-0.2,0.2-0.4,0.1-0.4-0.1c0.8-11.7,10.5-16.4,15.5-21.4c1.3-4.8,4.4-9.1,9-11.9c9.6-5.8,22.1-2.8,28,6.8
		C221.6,198.2,218.6,210.7,209,216.6z M220.6,176.3c-0.4-13.7-7.6-17.7-7.3-19.5c0.3-1.2,1.5-0.2,2.9-1.1c1.4-0.9,0.7-2,1.9-1.7
		C219.8,154.5,223.9,168.7,220.6,176.3z M206,140.6c-0.6-0.6-1.2-1.4-0.4-2.3c0.8-0.9,1.8-0.7,3.5-0.4c1.7,0.3,16.6,3.7,18.2,5.4
		c1.7,1.8-1.8,5.1-5.3,5.1C219,148.2,206.9,141.5,206,140.6z M237.2,172.7c-2.6-16.7-11.9-20.9-11.9-22.6c0-1.4,1.9-0.8,3.5-2.1
		c1.6-1.3,0.6-2.8,2.3-2.6C233.1,145.8,240.1,162.8,237.2,172.7z M237.9,139.9c0.3-2,2.2-1.6,3.8-3.6c1.6-2,0-4.6,1.4-3.8
		c2.5,1.5,9.1,18.7,8.3,31.5C243.7,144.5,237.6,142,237.9,139.9z"/>
	<path id="XMLID_574_" class="st0" d="M155.1,138.9c1.9,1.9,4.9,1.9,6.8,0c1.9-1.9,7.4-14.1,7.4-14.1s-12.2,5.5-14.1,7.4
		C153.2,134,153.2,137.1,155.1,138.9z"/>
	<path id="XMLID_556_" class="st0" d="M127.8,124.8c0,0,5.5,12.2,7.4,14.1c1.9,1.9,4.9,1.9,6.7,0c1.9-1.9,1.9-4.9,0-6.7
		C140.1,130.3,127.8,124.8,127.8,124.8z"/>
</g>
<g>
	<path d="M174.8,18.3c-0.2,1.1-0.5,2.1-0.9,2.9c-0.4,0.8-0.9,1.5-1.5,2s-1.2,0.9-2,1.1c-0.8,0.2-1.6,0.2-2.5,0.1
		c-0.9-0.1-1.7-0.4-2.3-0.8c-0.7-0.4-1.2-1-1.6-1.6s-0.7-1.5-0.8-2.4c-0.1-0.9-0.1-1.9,0.1-3.1l0.7-4.1c0.2-1.1,0.5-2.1,0.9-2.9
		c0.4-0.8,0.9-1.5,1.5-2c0.6-0.5,1.3-0.9,2-1.1c0.8-0.2,1.6-0.2,2.5-0.1c0.9,0.1,1.7,0.4,2.3,0.8c0.7,0.4,1.2,1,1.6,1.6
		c0.4,0.7,0.7,1.5,0.8,2.4c0.1,0.9,0.1,1.9-0.1,3.1L174.8,18.3z M173.2,14.4l-7.7,4.2c0,1.2,0.2,2.1,0.6,2.8
		c0.5,0.7,1.2,1.1,2.2,1.3c1.2,0.2,2.1-0.1,2.8-0.8s1.1-1.8,1.4-3.4L173.2,14.4z M165.7,16.4l7.7-4.2c0.1-1.2-0.1-2.1-0.6-2.8
		c-0.5-0.7-1.2-1.1-2.2-1.3c-1.2-0.2-2.1,0.1-2.8,0.8c-0.7,0.7-1.2,1.8-1.4,3.4L165.7,16.4z"/>
	<path d="M184.2,27.8l-2.2-0.6l4-14.4l-5,0.5l0.6-2l7.2-0.7l0.2,0L184.2,27.8z"/>
	<path d="M197.9,32.7l-2.1-0.9l5.6-13.9l-5-0.1l0.8-1.9l7.2,0.1l0.2,0.1L197.9,32.7z"/>
	<path d="M211,39.1l-2-1.1l7.2-13.1l-5-0.7l1-1.8l7.2,1l0.2,0.1L211,39.1z"/>
	<path d="M230.3,43.7c-0.7,0.9-1.3,1.7-2.1,2.2c-0.7,0.6-1.5,1-2.2,1.2c-0.8,0.2-1.5,0.2-2.3,0.1s-1.5-0.5-2.3-1
		c-0.7-0.5-1.3-1.1-1.7-1.8c-0.4-0.7-0.6-1.4-0.7-2.2c-0.1-0.8,0.1-1.6,0.3-2.5c0.3-0.9,0.8-1.8,1.4-2.7l2.4-3.4
		c0.7-0.9,1.3-1.7,2.1-2.2c0.7-0.6,1.5-1,2.2-1.2c0.8-0.2,1.5-0.2,2.3-0.1c0.8,0.2,1.5,0.5,2.3,1c0.7,0.5,1.3,1.1,1.7,1.8
		c0.4,0.7,0.6,1.4,0.7,2.2s-0.1,1.6-0.4,2.5c-0.3,0.9-0.8,1.8-1.4,2.7L230.3,43.7z M230.5,39.4l-8.7,0.3c-0.6,1-0.8,1.9-0.7,2.8
		c0.1,0.8,0.6,1.5,1.4,2.1c1,0.7,1.9,0.9,2.9,0.5c0.9-0.3,1.8-1.1,2.7-2.4L230.5,39.4z M223,37.9l8.8-0.3c0.6-1,0.8-2,0.7-2.8
		c-0.1-0.8-0.6-1.5-1.4-2.2c-1-0.7-1.9-0.9-2.9-0.5c-0.9,0.3-1.8,1.1-2.7,2.4L223,37.9z"/>
	<path d="M234.5,56.3l-1.7-1.5l10-11.1l-4.7-1.8l1.4-1.5l6.8,2.6l0.1,0.1L234.5,56.3z"/>
	<path d="M252.2,65.2c-0.9,0.8-1.7,1.3-2.5,1.7c-0.8,0.4-1.6,0.6-2.4,0.6c-0.8,0-1.5-0.1-2.2-0.4s-1.4-0.8-2-1.5
		c-0.6-0.7-1-1.4-1.3-2.1c-0.2-0.7-0.3-1.5-0.2-2.3s0.4-1.5,0.9-2.3c0.5-0.8,1.2-1.5,2-2.3l3.1-2.8c0.9-0.8,1.7-1.3,2.5-1.7
		c0.8-0.4,1.6-0.6,2.4-0.6c0.8,0,1.5,0.1,2.2,0.4c0.7,0.3,1.4,0.8,2,1.5c0.6,0.7,1,1.4,1.3,2.1c0.2,0.7,0.3,1.5,0.2,2.3
		c-0.1,0.8-0.4,1.5-0.9,2.3c-0.5,0.8-1.2,1.5-2,2.3L252.2,65.2z M253.4,61.1l-8.6-1.7c-0.8,0.9-1.2,1.7-1.3,2.5
		c-0.1,0.8,0.2,1.6,0.9,2.4c0.8,0.9,1.7,1.3,2.7,1.2s2.1-0.7,3.2-1.7L253.4,61.1z M246.4,57.9l8.6,1.7c0.8-0.9,1.2-1.7,1.3-2.6
		c0.1-0.8-0.2-1.6-0.9-2.4c-0.8-0.9-1.7-1.3-2.7-1.2c-1,0.1-2.1,0.7-3.2,1.7L246.4,57.9z"/>
	<path d="M261.2,77.7c-0.9,0.7-1.8,1.1-2.7,1.4c-0.9,0.3-1.7,0.4-2.5,0.3s-1.5-0.3-2.2-0.7c-0.7-0.4-1.3-1-1.8-1.7
		c-0.5-0.7-0.9-1.5-1-2.3c-0.2-0.8-0.1-1.5,0.1-2.3c0.2-0.8,0.6-1.5,1.2-2.2c0.6-0.7,1.3-1.4,2.3-2.1l3.4-2.4
		c0.9-0.7,1.8-1.1,2.7-1.4c0.9-0.3,1.7-0.4,2.5-0.3c0.8,0.1,1.5,0.3,2.2,0.7c0.7,0.4,1.3,1,1.8,1.7c0.5,0.8,0.9,1.5,1,2.3
		c0.2,0.8,0.1,1.5-0.1,2.3c-0.2,0.8-0.6,1.5-1.2,2.2s-1.3,1.4-2.3,2.1L261.2,77.7z M262.9,73.7l-8.3-2.7c-0.9,0.8-1.4,1.6-1.6,2.4
		c-0.2,0.8,0,1.6,0.6,2.5c0.7,1,1.5,1.5,2.5,1.5c1,0,2.1-0.5,3.4-1.3L262.9,73.7z M256.3,69.8l8.4,2.7c0.9-0.8,1.4-1.6,1.6-2.4
		c0.2-0.8,0-1.7-0.6-2.5c-0.7-1-1.5-1.5-2.5-1.5c-1,0-2.1,0.4-3.4,1.3L256.3,69.8z"/>
	<path d="M274.6,105.3c-1.1,0.4-2,0.7-3,0.8s-1.7,0-2.5-0.2c-0.7-0.2-1.4-0.6-1.9-1.2c-0.6-0.5-1-1.2-1.3-2.1
		c-0.3-0.8-0.5-1.7-0.5-2.4s0.2-1.5,0.6-2.2c0.4-0.7,0.9-1.3,1.6-1.9c0.7-0.6,1.6-1.1,2.7-1.5l3.9-1.5c1.1-0.4,2-0.7,3-0.8
		c0.9-0.1,1.7,0,2.5,0.2c0.7,0.2,1.4,0.6,2,1.2c0.6,0.5,1,1.2,1.3,2.1c0.3,0.9,0.5,1.7,0.5,2.5c0,0.8-0.2,1.5-0.6,2.2
		c-0.4,0.7-0.9,1.3-1.6,1.9s-1.6,1.1-2.7,1.5L274.6,105.3z M277.1,101.9l-7.5-4.5c-1,0.6-1.7,1.2-2.1,2c-0.4,0.8-0.3,1.6,0,2.6
		c0.4,1.1,1.2,1.8,2.1,2c1,0.2,2.2,0,3.6-0.5L277.1,101.9z M271.5,96.5l7.5,4.5c1.1-0.6,1.8-1.2,2.1-2c0.4-0.8,0.4-1.6,0-2.6
		c-0.4-1.1-1.1-1.8-2.1-2c-1-0.2-2.2-0.1-3.6,0.5L271.5,96.5z"/>
	<path d="M271.2,118.2l-0.6-2.2l14.5-3.9l-2.9-4.1l2-0.5l4.3,5.9l0,0.2L271.2,118.2z"/>
	<path d="M273.9,132.5l-0.3-2.2l14.8-2.2l-2.4-4.4l2.1-0.3l3.6,6.3l0,0.2L273.9,132.5z"/>
	<path d="M282,150.6c-1.1,0-2.1-0.1-3-0.3s-1.6-0.6-2.3-1.1c-0.6-0.5-1.1-1.1-1.4-1.8c-0.3-0.7-0.5-1.5-0.5-2.4
		c0-0.9,0.1-1.7,0.4-2.4c0.3-0.7,0.7-1.3,1.3-1.9c0.6-0.5,1.3-0.9,2.2-1.2c0.9-0.3,1.9-0.5,3-0.5l4.2-0.1c1.1,0,2.1,0.1,3,0.3
		c0.9,0.2,1.6,0.6,2.3,1.1c0.6,0.5,1.1,1.1,1.4,1.8c0.3,0.7,0.5,1.5,0.6,2.4c0,0.9-0.1,1.7-0.4,2.5c-0.3,0.7-0.7,1.3-1.3,1.9
		s-1.3,0.9-2.2,1.2c-0.9,0.3-1.9,0.5-3,0.5L282,150.6z M285.5,148.2l-5.5-6.8c-1.1,0.2-2,0.6-2.6,1.2c-0.6,0.6-0.9,1.4-0.8,2.4
		c0,1.2,0.5,2.1,1.3,2.6c0.8,0.5,2,0.8,3.6,0.7L285.5,148.2z M282.1,141.3l5.6,6.8c1.2-0.2,2.1-0.5,2.7-1.1c0.6-0.6,0.9-1.4,0.8-2.5
		c0-1.2-0.5-2.1-1.3-2.6c-0.8-0.5-2-0.8-3.6-0.7L282.1,141.3z"/>
	<path d="M280.9,166c-1.1-0.1-2.1-0.3-3-0.6c-0.9-0.3-1.6-0.8-2.1-1.3c-0.6-0.5-1-1.2-1.2-1.9c-0.3-0.7-0.3-1.6-0.3-2.5
		c0.1-0.9,0.3-1.7,0.7-2.4s0.9-1.3,1.5-1.7c0.6-0.4,1.4-0.8,2.3-1c0.9-0.2,1.9-0.2,3-0.1l4.2,0.4c1.1,0.1,2.1,0.3,3,0.6
		s1.6,0.8,2.1,1.3c0.6,0.5,1,1.2,1.2,1.9c0.3,0.7,0.3,1.6,0.3,2.5c-0.1,0.9-0.3,1.7-0.7,2.4c-0.4,0.7-0.9,1.3-1.5,1.7
		c-0.6,0.4-1.4,0.8-2.3,0.9c-0.9,0.2-1.9,0.2-3,0.1L280.9,166z M284.7,164l-4.7-7.4c-1.2,0-2.1,0.3-2.7,0.8c-0.7,0.5-1,1.3-1.1,2.3
		c-0.1,1.2,0.2,2.1,1,2.7s1.9,1,3.5,1.1L284.7,164z M282.1,156.7l4.7,7.4c1.2,0,2.1-0.3,2.8-0.8c0.7-0.5,1-1.3,1.1-2.3
		c0.1-1.2-0.2-2.1-1-2.7s-1.9-1-3.4-1.1L282.1,156.7z"/>
	<path d="M272.1,175.9l0.4-2.2l14.7,3l-0.8-4.9l2,0.4l1.2,7.1l0,0.2L272.1,175.9z"/>
	<path d="M273.5,195.8c-1.1-0.3-2-0.8-2.8-1.3c-0.8-0.5-1.3-1.1-1.8-1.8c-0.4-0.7-0.7-1.4-0.7-2.1c-0.1-0.8,0-1.6,0.3-2.5
		c0.3-0.9,0.7-1.6,1.2-2.2c0.5-0.6,1.1-1,1.9-1.3s1.5-0.4,2.5-0.4c0.9,0,1.9,0.2,3,0.6l4,1.3c1.1,0.3,2,0.8,2.8,1.3
		c0.8,0.5,1.3,1.1,1.8,1.8c0.4,0.7,0.7,1.4,0.8,2.2c0.1,0.8,0,1.6-0.3,2.5c-0.3,0.9-0.7,1.6-1.2,2.2c-0.5,0.6-1.1,1-1.9,1.3
		c-0.7,0.3-1.6,0.4-2.5,0.4c-0.9,0-1.9-0.2-3-0.6L273.5,195.8z M277.7,194.7l-2.9-8.2c-1.1-0.2-2.1-0.2-2.8,0.2
		c-0.8,0.4-1.3,1-1.6,2c-0.4,1.1-0.3,2.1,0.4,2.9c0.6,0.8,1.6,1.4,3.1,1.9L277.7,194.7z M276.8,187.1l2.9,8.3
		c1.2,0.2,2.1,0.2,2.9-0.2c0.8-0.3,1.3-1,1.6-2c0.4-1.1,0.3-2.1-0.3-2.9c-0.6-0.8-1.6-1.4-3.1-1.9L276.8,187.1z"/>
	<path d="M262.7,203.5l0.9-2.1l13.6,6.2l0.3-5l1.9,0.9l-0.4,7.2l-0.1,0.2L262.7,203.5z"/>
	<path d="M250.3,235.4c-0.9-0.7-1.6-1.4-2.2-2.2s-0.9-1.5-1.1-2.3c-0.2-0.8-0.2-1.5,0-2.3c0.2-0.8,0.6-1.5,1.1-2.2
		c0.6-0.7,1.2-1.3,1.9-1.6c0.7-0.4,1.4-0.6,2.2-0.6c0.8,0,1.6,0.1,2.5,0.5c0.9,0.3,1.7,0.8,2.6,1.5l3.3,2.6c0.9,0.7,1.6,1.4,2.2,2.2
		s0.9,1.5,1.1,2.3c0.2,0.8,0.2,1.5,0,2.3c-0.2,0.8-0.6,1.5-1.1,2.2c-0.6,0.7-1.2,1.3-1.9,1.6c-0.7,0.4-1.4,0.6-2.2,0.6
		c-0.8,0-1.6-0.1-2.5-0.5c-0.9-0.3-1.7-0.8-2.6-1.5L250.3,235.4z M254.6,235.8l0.1-8.7c-1-0.6-1.9-0.9-2.7-0.8
		c-0.8,0.1-1.6,0.5-2.2,1.3c-0.7,1-1,1.9-0.7,2.8c0.3,0.9,1.1,1.9,2.3,2.8L254.6,235.8z M256.4,228.3l0,8.8c1,0.6,1.9,0.9,2.8,0.8
		c0.8-0.1,1.6-0.5,2.2-1.3c0.7-0.9,1-1.9,0.7-2.8c-0.3-0.9-1-1.9-2.3-2.8L256.4,228.3z"/>
	<path d="M237.5,239l1.6-1.6l10.7,10.5l2-4.6l1.5,1.5l-2.9,6.7l-0.1,0.1L237.5,239z"/>
	<path d="M226.6,248.6l1.8-1.4l9.4,11.6l2.5-4.3l1.3,1.6l-3.6,6.3l-0.1,0.1L226.6,248.6z"/>
	<path d="M215,264.8c-0.6-1-1-1.9-1.3-2.8c-0.2-0.9-0.3-1.7-0.2-2.5c0.1-0.8,0.4-1.5,0.8-2.1c0.4-0.6,1-1.2,1.8-1.7
		c0.8-0.5,1.5-0.8,2.3-0.9c0.8-0.1,1.5-0.1,2.3,0.2c0.7,0.2,1.5,0.7,2.2,1.3s1.3,1.4,2,2.3l2.2,3.5c0.6,1,1,1.9,1.3,2.8
		c0.2,0.9,0.3,1.7,0.2,2.5c-0.1,0.8-0.4,1.5-0.8,2.1c-0.4,0.6-1,1.2-1.8,1.7c-0.8,0.5-1.5,0.8-2.3,0.9c-0.8,0.1-1.5,0.1-2.3-0.2
		s-1.5-0.7-2.2-1.3s-1.3-1.4-2-2.3L215,264.8z M218.9,266.6l3-8.2c-0.7-0.9-1.5-1.5-2.3-1.7c-0.8-0.2-1.6,0-2.5,0.5
		c-1,0.6-1.5,1.5-1.6,2.5c0,1,0.4,2.1,1.2,3.4L218.9,266.6z M223.1,260.2l-3,8.2c0.7,0.9,1.5,1.5,2.3,1.7c0.8,0.2,1.7,0,2.5-0.5
		c1-0.6,1.5-1.5,1.6-2.4c0-1-0.3-2.1-1.2-3.4L223.1,260.2z"/>
	<path d="M201.3,271.7c-0.5-1-0.8-2-1-2.9c-0.1-0.9-0.1-1.7,0-2.5s0.5-1.4,1-2s1.2-1.1,2-1.5c0.8-0.4,1.6-0.6,2.4-0.6
		c0.8,0,1.5,0.1,2.2,0.4c0.7,0.3,1.4,0.8,2,1.5c0.6,0.7,1.2,1.5,1.7,2.5l1.8,3.8c0.5,1,0.8,2,1,2.9s0.1,1.7-0.1,2.5s-0.5,1.4-1,2
		c-0.5,0.6-1.2,1.1-2,1.5c-0.8,0.4-1.6,0.6-2.4,0.6c-0.8,0-1.5-0.1-2.2-0.5s-1.4-0.8-2-1.5s-1.2-1.5-1.7-2.6L201.3,271.7z
		 M204.9,273.9l3.9-7.8c-0.6-1-1.3-1.6-2.1-1.9c-0.8-0.3-1.6-0.2-2.5,0.2c-1.1,0.5-1.7,1.3-1.8,2.3c-0.1,1,0.1,2.2,0.8,3.5
		L204.9,273.9z M209.9,268l-3.9,7.8c0.6,1,1.3,1.7,2.1,2c0.8,0.3,1.6,0.2,2.6-0.2c1.1-0.5,1.7-1.3,1.9-2.2c0.2-1-0.1-2.2-0.8-3.5
		L209.9,268z"/>
	<path d="M186.8,276.9c-0.4-1.1-0.6-2.1-0.6-3c0-0.9,0.1-1.7,0.3-2.5c0.3-0.7,0.7-1.4,1.3-1.9c0.6-0.5,1.3-0.9,2.2-1.2
		c0.9-0.3,1.7-0.4,2.5-0.4c0.8,0.1,1.5,0.3,2.2,0.7c0.7,0.4,1.3,1,1.8,1.7c0.5,0.7,1,1.7,1.4,2.7l1.4,4c0.4,1.1,0.6,2.1,0.6,3
		c0,0.9-0.1,1.7-0.3,2.5c-0.3,0.7-0.7,1.4-1.3,1.9c-0.6,0.5-1.3,1-2.1,1.2c-0.9,0.3-1.7,0.4-2.5,0.4c-0.8-0.1-1.5-0.3-2.2-0.7
		c-0.7-0.4-1.3-1-1.8-1.7c-0.5-0.7-1-1.7-1.4-2.7L186.8,276.9z M190.2,279.6l4.8-7.3c-0.5-1-1.1-1.8-1.9-2.1
		c-0.7-0.4-1.6-0.4-2.6-0.1c-1.1,0.4-1.8,1.1-2.1,2c-0.3,1-0.1,2.2,0.4,3.6L190.2,279.6z M195.8,274.3l-4.8,7.3
		c0.5,1.1,1.1,1.8,1.9,2.2c0.7,0.4,1.6,0.4,2.6,0.1c1.1-0.4,1.8-1.1,2.1-2c0.3-0.9,0.2-2.2-0.4-3.6L195.8,274.3z"/>
	<path d="M174.1,273l2.2-0.5l3.3,14.6l4.2-2.8l0.5,2l-6,4l-0.2,0L174.1,273z"/>
	<path d="M159.7,275.1l2.3-0.2l1.6,14.9l4.5-2.3l0.2,2.1l-6.5,3.3l-0.2,0L159.7,275.1z"/>
	<path d="M126,280.6c0.1-1.1,0.4-2.1,0.8-3c0.4-0.8,0.8-1.5,1.4-2.1c0.6-0.5,1.2-0.9,2-1.1c0.7-0.2,1.6-0.3,2.5-0.2
		c0.9,0.1,1.7,0.4,2.4,0.8c0.7,0.4,1.2,0.9,1.6,1.6s0.7,1.4,0.9,2.3s0.2,1.9,0,3.1l-0.5,4.2c-0.1,1.1-0.4,2.1-0.8,3
		c-0.4,0.8-0.8,1.5-1.4,2.1c-0.6,0.5-1.2,0.9-2,1.1c-0.8,0.2-1.6,0.3-2.5,0.2c-0.9-0.1-1.7-0.4-2.4-0.8c-0.7-0.4-1.2-0.9-1.6-1.6
		c-0.4-0.7-0.7-1.4-0.8-2.4s-0.1-1.9,0-3.1L126,280.6z M135.1,282.3l-7.6,4.4c0,1.2,0.2,2.1,0.7,2.8c0.5,0.7,1.2,1.1,2.3,1.2
		c1.2,0.2,2.1-0.1,2.8-0.9c0.7-0.7,1.1-1.9,1.3-3.4L135.1,282.3z M127.8,284.5l7.6-4.4c0-1.2-0.2-2.1-0.7-2.8
		c-0.5-0.7-1.2-1.1-2.3-1.2c-1.2-0.2-2.1,0.1-2.8,0.9c-0.7,0.7-1.1,1.9-1.3,3.4L127.8,284.5z"/>
	<path d="M116.3,271.5l2.2,0.5l-3.4,14.6l5-0.7l-0.5,2l-7.2,1l-0.2,0L116.3,271.5z"/>
	<path d="M102.5,267l2.1,0.8l-5.2,14l5,0l-0.7,1.9l-7.2,0.1l-0.2-0.1L102.5,267z"/>
	<path d="M82.7,265.2c0.5-1,1.1-1.9,1.7-2.5c0.6-0.7,1.3-1.2,2-1.5s1.5-0.4,2.2-0.4c0.8,0,1.6,0.3,2.4,0.7c0.8,0.4,1.5,0.9,2,1.5
		c0.5,0.6,0.8,1.3,1,2c0.2,0.8,0.2,1.6,0,2.5c-0.2,0.9-0.5,1.9-1,2.9l-1.9,3.7c-0.5,1-1.1,1.9-1.7,2.5s-1.3,1.2-2,1.5
		c-0.7,0.3-1.5,0.5-2.2,0.4c-0.8,0-1.6-0.3-2.4-0.7c-0.8-0.4-1.5-0.9-2-1.5c-0.5-0.6-0.8-1.3-1-2.1c-0.2-0.8-0.2-1.6,0-2.5
		s0.5-1.9,1-2.9L82.7,265.2z M90.8,269.9l-8.6,1.6c-0.4,1.1-0.5,2.1-0.3,2.9c0.2,0.8,0.8,1.4,1.7,1.9c1.1,0.5,2,0.6,2.9,0.1
		c0.9-0.5,1.7-1.4,2.4-2.8L90.8,269.9z M83.1,269.5l8.6-1.6c0.4-1.1,0.5-2,0.2-2.8c-0.2-0.8-0.8-1.4-1.7-1.9c-1.1-0.5-2-0.6-2.9-0.1
		c-0.9,0.5-1.7,1.4-2.4,2.8L83.1,269.5z"/>
	<path d="M76.8,253.3l1.9,1.3l-8.3,12.5l4.9,1.1l-1.1,1.7l-7.1-1.6l-0.2-0.1L76.8,253.3z"/>
	<path d="M57.9,247.1c0.7-0.9,1.5-1.6,2.3-2.1s1.5-0.8,2.3-1c0.8-0.1,1.5-0.1,2.3,0.1c0.7,0.2,1.5,0.6,2.2,1.2
		c0.7,0.6,1.2,1.2,1.6,1.9c0.3,0.7,0.5,1.4,0.5,2.2c0,0.8-0.2,1.6-0.6,2.4c-0.4,0.8-0.9,1.7-1.7,2.6l-2.7,3.2
		c-0.7,0.9-1.5,1.6-2.3,2.1c-0.8,0.5-1.5,0.8-2.3,1c-0.8,0.1-1.5,0.1-2.3-0.1c-0.8-0.2-1.5-0.6-2.2-1.2c-0.7-0.6-1.2-1.2-1.6-1.9
		c-0.3-0.7-0.5-1.4-0.5-2.2c0-0.8,0.2-1.6,0.6-2.4c0.4-0.8,0.9-1.7,1.7-2.6L57.9,247.1z M64.7,253.5l-8.8-0.4c-0.7,1-1,1.9-1,2.7
		s0.4,1.6,1.2,2.3c0.9,0.8,1.8,1,2.8,0.8c1-0.2,1.9-1,2.9-2.1L64.7,253.5z M57.3,251.4l8.7,0.4c0.6-1,0.9-1.9,0.9-2.7
		c0-0.8-0.5-1.6-1.2-2.2c-0.9-0.8-1.9-1-2.8-0.8c-1,0.3-1.9,1-2.9,2.2L57.3,251.4z"/>
	<path d="M47.3,236.1c0.8-0.8,1.7-1.4,2.5-1.8c0.8-0.4,1.6-0.6,2.4-0.7c0.8-0.1,1.5,0.1,2.2,0.4c0.7,0.3,1.4,0.8,2,1.5
		c0.6,0.7,1.1,1.4,1.3,2.1c0.3,0.7,0.3,1.5,0.2,2.3c-0.1,0.8-0.4,1.6-0.8,2.4c-0.5,0.8-1.1,1.6-1.9,2.4l-3.1,2.9
		c-0.8,0.8-1.7,1.4-2.5,1.8c-0.8,0.4-1.6,0.6-2.4,0.7c-0.8,0.1-1.5-0.1-2.2-0.4c-0.7-0.3-1.4-0.8-2-1.5c-0.6-0.7-1.1-1.4-1.3-2.1
		c-0.3-0.7-0.3-1.5-0.2-2.3c0.1-0.8,0.4-1.6,0.9-2.4c0.5-0.8,1.1-1.6,1.9-2.4L47.3,236.1z M53.3,243.1l-8.7-1.4
		c-0.8,0.9-1.2,1.8-1.3,2.6c-0.1,0.8,0.3,1.6,1,2.4c0.8,0.9,1.7,1.2,2.7,1.1c1-0.1,2-0.7,3.2-1.8L53.3,243.1z M46.2,240.2l8.6,1.4
		c0.7-0.9,1.1-1.8,1.2-2.6c0.1-0.8-0.3-1.6-1-2.4c-0.8-0.9-1.7-1.2-2.7-1.1c-1,0.2-2,0.8-3.2,1.8L46.2,240.2z"/>
	<path d="M37.9,223.8c0.9-0.7,1.8-1.2,2.7-1.5c0.9-0.3,1.7-0.5,2.5-0.4c0.8,0,1.5,0.2,2.2,0.6c0.7,0.4,1.3,1,1.8,1.7
		c0.5,0.7,0.9,1.5,1.1,2.2c0.2,0.8,0.2,1.5,0,2.3s-0.6,1.5-1.1,2.2c-0.5,0.7-1.3,1.4-2.2,2.1l-3.4,2.5c-0.9,0.7-1.8,1.2-2.7,1.5
		c-0.9,0.3-1.7,0.5-2.5,0.4c-0.8,0-1.5-0.2-2.2-0.6c-0.7-0.4-1.3-0.9-1.8-1.7c-0.5-0.7-0.9-1.5-1.1-2.2c-0.2-0.8-0.2-1.5,0-2.3
		c0.2-0.8,0.6-1.5,1.1-2.2c0.6-0.7,1.3-1.4,2.2-2.1L37.9,223.8z M43.1,231.6l-8.4-2.4c-0.9,0.8-1.4,1.6-1.6,2.4
		c-0.2,0.8,0.1,1.7,0.7,2.5c0.7,1,1.6,1.4,2.5,1.4c1,0,2.1-0.5,3.3-1.4L43.1,231.6z M36.4,227.8l8.4,2.4c0.8-0.8,1.3-1.6,1.5-2.4
		c0.1-0.8-0.1-1.6-0.7-2.5c-0.7-1-1.6-1.4-2.6-1.4c-1,0-2.1,0.5-3.3,1.4L36.4,227.8z"/>
	<path d="M23.8,196.6c1-0.5,2-0.7,2.9-0.8c0.9-0.1,1.7-0.1,2.5,0.2c0.7,0.2,1.4,0.6,2,1.1c0.6,0.5,1,1.2,1.4,2.1
		c0.4,0.8,0.5,1.6,0.5,2.4c0,0.8-0.2,1.5-0.5,2.2c-0.4,0.7-0.9,1.3-1.6,1.9c-0.7,0.6-1.6,1.1-2.6,1.6l-3.8,1.7c-1,0.5-2,0.7-2.9,0.8
		s-1.7,0.1-2.5-0.2c-0.8-0.2-1.4-0.6-2-1.1c-0.6-0.5-1-1.2-1.4-2c-0.4-0.8-0.5-1.7-0.5-2.4c0-0.8,0.2-1.5,0.5-2.2
		c0.4-0.7,0.9-1.3,1.6-1.9c0.7-0.6,1.6-1.1,2.6-1.6L23.8,196.6z M27.1,205.3l-7.7-4.3c-1,0.6-1.7,1.3-2.1,2
		c-0.3,0.8-0.3,1.6,0.1,2.6c0.5,1.1,1.2,1.7,2.2,1.9c1,0.2,2.2,0,3.6-0.6L27.1,205.3z M21.4,200.1l7.6,4.3c1-0.6,1.7-1.3,2-2
		c0.3-0.8,0.3-1.6-0.1-2.6c-0.5-1.1-1.2-1.8-2.2-1.9c-1-0.2-2.2,0-3.6,0.6L21.4,200.1z"/>
	<path d="M26.8,183.6l0.7,2.2l-14.3,4.3l3.1,4l-2,0.6L9.7,189l-0.1-0.2L26.8,183.6z"/>
	<path d="M23.6,169.4l0.4,2.2l-14.7,2.6l2.6,4.3l-2,0.4l-3.8-6.2l0-0.2L23.6,169.4z"/>
	<path d="M15.1,151.5c1.1-0.1,2.2,0,3,0.2c0.9,0.2,1.7,0.5,2.3,1c0.6,0.5,1.1,1,1.5,1.7c0.4,0.7,0.6,1.5,0.6,2.4
		c0.1,0.9-0.1,1.7-0.3,2.5c-0.3,0.7-0.7,1.4-1.3,1.9s-1.3,1-2.1,1.3c-0.9,0.3-1.9,0.5-3,0.6l-4.2,0.3c-1.1,0.1-2.2,0-3-0.2
		c-0.9-0.2-1.7-0.5-2.3-1c-0.6-0.5-1.1-1-1.5-1.7c-0.4-0.7-0.6-1.5-0.6-2.4c-0.1-0.9,0.1-1.7,0.3-2.5c0.3-0.7,0.7-1.4,1.3-1.9
		c0.6-0.5,1.3-1,2.2-1.3s1.9-0.5,3-0.6L15.1,151.5z M15.2,160.8l-5.8-6.6c-1.2,0.2-2.1,0.6-2.6,1.2c-0.6,0.6-0.8,1.4-0.8,2.5
		c0.1,1.2,0.5,2,1.4,2.6c0.8,0.5,2,0.7,3.6,0.6L15.2,160.8z M11.6,154l5.7,6.6c1.1-0.2,2-0.6,2.6-1.2c0.6-0.6,0.8-1.4,0.8-2.4
		c-0.1-1.2-0.5-2.1-1.4-2.6c-0.9-0.5-2-0.7-3.6-0.6L11.6,154z"/>
	<path d="M22.3,140.4l-0.1,2.3l-15-0.8l1.5,4.8l-2.1-0.1l-2.2-6.9l0-0.2L22.3,140.4z"/>
	<path d="M24.2,125.9l-0.4,2.2L9,125.6l1,4.9l-2-0.4L6.5,123l0-0.2L24.2,125.9z"/>
	<path d="M27.7,111.7l-0.6,2.2l-14.4-4.2l0.4,5l-2-0.6l-0.6-7.2l0.1-0.2L27.7,111.7z"/>
	<path d="M27.9,91.9c1,0.4,1.9,1,2.6,1.5c0.7,0.6,1.2,1.2,1.6,1.9c0.4,0.7,0.6,1.4,0.6,2.2c0,0.8-0.2,1.6-0.5,2.4
		c-0.4,0.8-0.8,1.5-1.4,2.1c-0.6,0.5-1.2,0.9-2,1.1c-0.7,0.2-1.6,0.3-2.5,0.2c-0.9-0.1-1.9-0.4-2.9-0.8l-3.9-1.6
		c-1-0.4-1.9-1-2.6-1.5c-0.7-0.6-1.2-1.2-1.6-1.9c-0.4-0.7-0.6-1.4-0.6-2.2c0-0.8,0.2-1.6,0.5-2.4c0.4-0.8,0.8-1.5,1.4-2.1
		c0.6-0.5,1.2-0.9,2-1.1c0.8-0.2,1.6-0.3,2.5-0.2c0.9,0.1,1.9,0.4,2.9,0.8L27.9,91.9z M23.9,100.3l-2.2-8.5
		c-1.1-0.3-2.1-0.4-2.9-0.1C18,92,17.4,92.6,17,93.6c-0.5,1.1-0.4,2.1,0.1,2.9c0.5,0.8,1.5,1.6,2.9,2.2L23.9,100.3z M23.7,92.6
		l2.2,8.5c1.1,0.3,2.1,0.3,2.8,0c0.8-0.3,1.4-0.9,1.8-1.9c0.5-1.1,0.4-2.1-0.1-2.9c-0.5-0.8-1.5-1.6-2.9-2.1L23.7,92.6z"/>
	<path d="M44.2,65.8c0.9,0.7,1.7,1.4,2.2,2.1c0.6,0.7,0.9,1.5,1.1,2.2c0.2,0.8,0.2,1.5,0,2.3c-0.2,0.8-0.5,1.5-1.1,2.2
		c-0.5,0.7-1.1,1.3-1.8,1.7C44,76.8,43.3,77,42.5,77c-0.8,0-1.6-0.1-2.5-0.4c-0.9-0.3-1.8-0.8-2.7-1.5L34,72.7
		c-0.9-0.7-1.7-1.4-2.2-2.1c-0.6-0.7-0.9-1.5-1.1-2.2c-0.2-0.8-0.2-1.5,0-2.3c0.2-0.8,0.5-1.5,1.1-2.2c0.5-0.7,1.1-1.3,1.8-1.7
		c0.7-0.4,1.4-0.6,2.2-0.7c0.8,0,1.6,0.1,2.5,0.4c0.9,0.3,1.8,0.8,2.7,1.5L44.2,65.8z M38.4,73.1l-0.2-8.8c-1-0.6-2-0.8-2.8-0.8
		c-0.8,0.1-1.6,0.6-2.2,1.4c-0.7,1-0.9,1.9-0.6,2.8c0.3,0.9,1.1,1.9,2.3,2.8L38.4,73.1z M39.9,65.6l0.2,8.7c1,0.6,1.9,0.8,2.8,0.7
		c0.8-0.1,1.5-0.6,2.1-1.4c0.7-1,0.9-1.9,0.6-2.9c-0.3-0.9-1.1-1.9-2.4-2.8L39.9,65.6z"/>
	<path d="M56.9,61.9l-1.5,1.7l-11-10.2L42.5,58L41,56.6l2.7-6.7l0.1-0.1L56.9,61.9z"/>
	<path d="M67.5,51.9l-1.7,1.5L56.1,42l-2.4,4.4l-1.4-1.6l3.4-6.4l0.1-0.1L67.5,51.9z"/>
	<path d="M78.6,35.5c0.6,0.9,1.1,1.9,1.4,2.7c0.3,0.9,0.4,1.7,0.3,2.5c-0.1,0.8-0.3,1.5-0.7,2.1c-0.4,0.7-1,1.2-1.8,1.8
		c-0.8,0.5-1.5,0.8-2.3,1c-0.8,0.1-1.5,0.1-2.3-0.1c-0.8-0.2-1.5-0.6-2.2-1.2c-0.7-0.6-1.4-1.3-2-2.3l-2.3-3.5
		c-0.6-0.9-1.1-1.9-1.4-2.7C65,34.9,64.9,34,65,33.3c0.1-0.8,0.3-1.5,0.7-2.2c0.4-0.7,1-1.2,1.8-1.8c0.8-0.5,1.5-0.8,2.3-1
		c0.8-0.1,1.5-0.1,2.3,0.1c0.7,0.2,1.5,0.6,2.2,1.2c0.7,0.6,1.4,1.3,2,2.3L78.6,35.5z M70.7,40.3l2.8-8.3c-0.8-0.9-1.6-1.5-2.4-1.7
		c-0.8-0.2-1.7,0-2.5,0.6c-1,0.7-1.5,1.5-1.5,2.5c0,1,0.4,2.1,1.3,3.4L70.7,40.3z M74.7,33.7L71.9,42c0.8,0.9,1.5,1.4,2.4,1.6
		c0.8,0.2,1.6,0,2.5-0.6c1-0.7,1.5-1.5,1.5-2.5c0-1-0.4-2.1-1.3-3.4L74.7,33.7z"/>
	<path d="M91.9,36l-2,1L83,23.8l-3.3,3.7l-1-1.8l4.8-5.4l0.2-0.1L91.9,36z"/>
	<path d="M105.3,30.2l-2.1,0.8l-5.3-14l-3.7,3.3l-0.7-1.9l5.4-4.8l0.2-0.1L105.3,30.2z"/>
	<path d="M119.3,26l-2.2,0.6l-3.7-14.5l-4.1,2.9l-0.5-2l5.9-4.2l0.2,0L119.3,26z"/>
	<path d="M133.6,23.5l-2.3,0.3l-2-14.8l-4.4,2.4l-0.3-2.1l6.4-3.5l0.2,0L133.6,23.5z"/>
</g>
</svg>
